<?xml version="1.0" standalone="no"?><!DOCTYPE svg PUBLIC "-//W3C//DTD SVG 1.1//EN" "http://www.w3.org/Graphics/SVG/1.1/DTD/svg11.dtd"><svg t="1571102801029" class="icon" viewBox="0 0 1024 1024" version="1.1" xmlns="http://www.w3.org/2000/svg" p-id="1952" xmlns:xlink="http://www.w3.org/1999/xlink" width="200" height="200"><defs><style type="text/css">@font-face { font-weight: 400; font-style: normal; font-family: Inter-Loom; src: url("https://cdn.loom.com/assets/fonts/inter/Inter-UI-Regular.woff2") format("woff2"); }
@font-face { font-weight: 400; font-style: italic; font-family: Inter-Loom; src: url("https://cdn.loom.com/assets/fonts/inter/Inter-UI-Italic.woff2") format("woff2"); }
@font-face { font-weight: 500; font-style: normal; font-family: Inter-Loom; src: url("https://cdn.loom.com/assets/fonts/inter/Inter-UI-Medium.woff2") format("woff2"); }
@font-face { font-weight: 500; font-style: italic; font-family: Inter-Loom; src: url("https://cdn.loom.com/assets/fonts/inter/Inter-UI-MediumItalic.woff2") format("woff2"); }
@font-face { font-weight: 700; font-style: normal; font-family: Inter-Loom; src: url("https://cdn.loom.com/assets/fonts/inter/Inter-UI-Bold.woff2") format("woff2"); }
@font-face { font-weight: 700; font-style: italic; font-family: Inter-Loom; src: url("https://cdn.loom.com/assets/fonts/inter/Inter-UI-BoldItalic.woff2") format("woff2"); }
@font-face { font-weight: 900; font-style: normal; font-family: Inter-Loom; src: url("https://cdn.loom.com/assets/fonts/inter/Inter-UI-Black.woff2") format("woff2"); }
@font-face { font-weight: 900; font-style: italic; font-family: Inter-Loom; src: url("https://cdn.loom.com/assets/fonts/inter/Inter-UI-BlackItalic.woff2") format("woff2"); }
</style></defs><path d="M390.38976 317.19424c0-40.38656-32.768-73.15456-73.19552-73.15456-40.38656 0-73.15456 32.768-73.15456 73.15456 0 40.42752 32.768 73.19552 73.15456 73.19552C357.62176 390.38976 390.38976 357.62176 390.38976 317.19424L390.38976 317.19424zM390.38976 317.19424M633.73312 691.03616l60.49792 0 0-60.49792c0-44.56448 26.70592-82.82112 64.88064-100.18816l-10.11712-34.69312 0-2.41664 0.08192 0-66.19136-199.96672-231.05536 298.10688-61.93152-104.89856L144.1792 734.45376l361.84064 0 40.63232 0C566.84544 708.23936 598.17984 691.03616 633.73312 691.03616zM1024 163.84c0-90.112-73.728-163.84-163.84-163.84L163.84 0C73.728 0 0 73.728 0 163.84l0 696.32c0 90.112 73.728 163.84 163.84 163.84l491.52 0 0-0.04096c0.08192 0 0.12288 0.04096 0.2048 0.04096 16.95744 0 30.72-13.76256 30.72-30.72s-13.76256-30.72-30.72-30.72c-0.08192 0-0.12288 0.04096-0.2048 0.04096L655.36 962.56 163.84 962.56c-56.48384 0-102.4-45.91616-102.4-102.4L61.44 163.84c0-56.48384 45.91616-102.4 102.4-102.4l696.32 0c56.48384 0 102.4 45.91616 102.4 102.4l0 488.52992c0 0.36864-0.2048 0.65536-0.2048 0.98304 0 16.95744 13.76256 30.72 30.72 30.72s30.72-13.76256 30.72-30.72c0-0.12288-0.08192-0.24576-0.08192-0.36864L1024 652.98432 1024 163.84zM992.09216 770.58048l-156.59008 0 0-156.59008c0-16.95744-13.76256-30.72-30.72-30.72s-30.72 13.76256-30.72 30.72l0 156.59008-156.59008 0c-16.95744 0-30.72 13.76256-30.72 30.72s13.76256 30.72 30.72 30.72l156.59008 0 0 156.59008c0 16.95744 13.76256 30.72 30.72 30.72s30.72-13.76256 30.72-30.72l0-156.59008 156.59008 0c16.95744 0 30.72-13.76256 30.72-30.72S1009.0496 770.58048 992.09216 770.58048z" p-id="1953" fill="#8a8a8a"></path></svg>